<svg width="32" height="33" viewBox="0 0 32 33" fill="none" xmlns="http://www.w3.org/2000/svg">
<path fill-rule="evenodd" clip-rule="evenodd" d="M8.47493 21.1255L6.93343 21.9122L16.307 26.6961L25.6805 21.9122L24.5093 21.3145L26.7092 20.1918L28.9167 21.3184C29.2446 21.4858 29.3748 21.8873 29.2074 22.2153C29.1435 22.3404 29.0418 22.4422 28.9167 22.506L16.61 28.7868C16.4197 28.8839 16.1943 28.8839 16.0039 28.7868L3.69725 22.506C3.3693 22.3386 3.23913 21.9371 3.4065 21.6092C3.47036 21.484 3.57212 21.3823 3.69725 21.3184L6.27509 20.0028L8.47493 21.1255ZM8.47493 15.7922L6.93343 16.5789L16.307 21.3627L25.6805 16.5789L24.5093 15.9812L26.7092 14.8585L28.9167 15.9851C29.2446 16.1524 29.3748 16.554 29.2074 16.8819C29.1435 17.0071 29.0418 17.1088 28.9167 17.1727L16.61 23.4535C16.4197 23.5506 16.1943 23.5506 16.0039 23.4535L3.69725 17.1727C3.3693 17.0053 3.23913 16.6038 3.4065 16.2758C3.47036 16.1507 3.57212 16.0489 3.69725 15.9851L6.27509 14.6695L8.47493 15.7922ZM25.6899 11.2524L16.3164 6.46854L6.94287 11.2524L16.3164 16.0362L25.6899 11.2524ZM16.6195 4.37779L28.9261 10.6586C29.254 10.8259 29.3842 11.2275 29.2169 11.5554C29.153 11.6806 29.0512 11.7823 28.9261 11.8462L16.6195 18.127C16.4291 18.2241 16.2037 18.2241 16.0133 18.127L3.7067 11.8462C3.37875 11.6788 3.24857 11.2773 3.41595 10.9493C3.47981 10.8242 3.58157 10.7224 3.7067 10.6586L16.0133 4.37779C16.2037 4.28064 16.4291 4.28064 16.6195 4.37779Z" fill="#2A303C"/>
</svg>
