<svg width="24" height="25" viewBox="0 0 24 25" fill="none" xmlns="http://www.w3.org/2000/svg">
<path fill-rule="evenodd" clip-rule="evenodd" d="M0 12.0027C0 18.6301 5.37258 24.0027 12 24.0027C18.6274 24.0027 24 18.6301 24 12.0027C24 5.37527 18.6274 0.00268555 12 0.00268555C5.37258 0.00268555 0 5.37527 0 12.0027ZM22 12.0027C22 17.5255 17.5228 22.0027 12 22.0027C6.47715 22.0027 2 17.5255 2 12.0027C2 6.47984 6.47715 2.00269 12 2.00269C17.5228 2.00269 22 6.47984 22 12.0027ZM13.2057 16.28V18.6694H10.6671L10.6671 16.28H13.2057ZM13.2057 14.6694L13.2057 5.33602H10.6671L10.6671 14.6694H13.2057Z" fill="#2A303C"/>
</svg>
