<svg width="32" height="33" viewBox="0 0 32 33" fill="none" xmlns="http://www.w3.org/2000/svg">
<path fill-rule="evenodd" clip-rule="evenodd" d="M11.8877 5.21276C12.0277 5.0771 12.2154 5.00267 12.4089 5.00269L20.4992 5.00867L20.5207 5.00863L20.5273 5.0086C20.7196 5.0062 20.908 5.07771 21.049 5.21052L21.0514 5.21278L25.4475 9.43773C25.5838 9.57332 25.6634 9.75644 25.6666 9.95009L25.6667 9.95569L25.6667 20.9396C25.6667 21.1365 25.5859 21.3233 25.4456 21.4593C25.3057 21.5949 25.118 21.6694 24.9244 21.6694H21.0228V20.2099H24.1822V10.6854L20.5325 10.6854C20.3389 10.6854 20.1512 10.611 20.0113 10.4753C19.871 10.3393 19.7902 10.1526 19.7902 9.95569V6.4621H13.1511L13.1511 9.48985H11.6667V5.73242C11.6667 5.53548 11.7475 5.34875 11.8877 5.21276ZM21.2747 7.46856V9.22599H23.1033L21.2747 7.46856Z" fill="#2A303C"/>
<path fill-rule="evenodd" clip-rule="evenodd" d="M15.3867 10.6027L19.7733 14.8293C19.92 14.976 20 15.1493 20 15.3493V26.336C20 26.536 19.92 26.7227 19.7733 26.856C19.64 26.9893 19.4533 27.0693 19.2533 27.0693H6.74667C6.54667 27.0693 6.36 26.9893 6.22667 26.856C6.08 26.7227 6 26.5227 6 26.336V11.1227C6 10.936 6.08 10.7493 6.22667 10.616C6.36 10.4693 6.54667 10.4027 6.74667 10.4027H14.8667C15.0533 10.416 15.24 10.4693 15.3867 10.6027ZM15.6133 12.8693V14.616H17.44L15.6133 12.8693ZM14.8667 16.0827C14.6667 16.0827 14.48 16.0027 14.3467 15.8693C14.2 15.736 14.12 15.5493 14.12 15.3493V11.856H7.48V25.6027H18.52V16.0827H14.8667Z" fill="#2A303C"/>
</svg>
